<?xml version="1.0" encoding="UTF-8"?>
<!DOCTYPE svg PUBLIC "-//W3C//DTD SVG 1.1//EN" "http://www.w3.org/Graphics/SVG/1.1/DTD/svg11.dtd">
<!-- Creator: CorelDRAW 2021 (64-Bit) -->
<svg xmlns="http://www.w3.org/2000/svg" xml:space="preserve" width="106.427mm" height="16.6646mm" version="1.1" style="shape-rendering:geometricPrecision; text-rendering:geometricPrecision; image-rendering:optimizeQuality; fill-rule:evenodd; clip-rule:evenodd"
viewBox="0 0 6240.67 977.18"
 xmlns:xlink="http://www.w3.org/1999/xlink"
 xmlns:xodm="http://www.corel.com/coreldraw/odm/2003">
 <defs>
  <style type="text/css">
   <![CDATA[
    .fil2 {fill:#4D4D4D}
    .fil0 {fill:#E22427}
    .fil3 {fill:#EDEDED}
    .fil1 {fill:#FEFEFE}
    .fil5 {fill:#1F1F1E;fill-rule:nonzero}
    .fil6 {fill:url(#id0)}
    .fil4 {fill:url(#id1)}
   ]]>
  </style>
  <linearGradient id="id0" gradientUnits="userSpaceOnUse" x1="4865.37" y1="968.09" x2="4865.37" y2="0">
   <stop offset="0" style="stop-opacity:1; stop-color:#E22427"/>
   <stop offset="1" style="stop-opacity:1; stop-color:#FA4B4D"/>
  </linearGradient>
  <linearGradient id="id1" gradientUnits="userSpaceOnUse" x1="3235.47" y1="554.25" x2="3235.47" y2="131.44">
   <stop offset="0" style="stop-opacity:1; stop-color:#DEDEDE"/>
   <stop offset="0.368627" style="stop-opacity:1; stop-color:white"/>
   <stop offset="0.501961" style="stop-opacity:1; stop-color:white"/>
   <stop offset="0.65098" style="stop-opacity:1; stop-color:white"/>
   <stop offset="1" style="stop-opacity:1; stop-color:#F0F0F0"/>
  </linearGradient>
 </defs>
 <g id="Слой_x0020_1">
  <metadata id="CorelCorpID_0Corel-Layer"/>
  <g id="_2373483028832">
   <g>
    <g>
     <polygon class="fil0" points="3753.8,17.53 -0,17.53 -0,692.51 2755.64,692.51 3753.8,692.51 "/>
     <path class="fil1" d="M2692.96 355c0,163.42 -38.07,295.9 -85.03,295.91l0 0 -2481.31 0c-46.96,0 -85.03,-132.48 -85.03,-295.91 0,-163.42 38.07,-295.9 85.03,-295.9l2481.31 0 0 0c46.96,0.01 85.03,132.49 85.03,295.9l0 0z"/>
     <path class="fil2" d="M293.45 202.29l72.66 0 114.52 304.64 -75.92 0 -19.73 -57.07 -110.43 0 -19.29 57.07 -75.97 0 114.16 -304.64zm-3.3 195.84l79.24 0 -39.42 -116.17 -39.82 116.17zm218.81 -195.84l153.16 0c27.1,0 47.15,4.4 60.12,13.13 13.02,8.77 22,18.34 26.9,28.77 3.28,7.1 5.27,13.87 5.98,20.3 0.67,6.43 1.01,11.58 1.01,15.41 0,13.97 -2.94,25.18 -8.83,33.66 -5.88,8.49 -12.37,15.04 -19.5,19.69 -4.11,2.76 -8.06,4.88 -11.89,6.37 -3.82,1.51 -7.14,2.66 -9.86,3.49l0 0.84c1.1,0.26 2.17,0.45 3.28,0.6 1.1,0.12 2.2,0.35 3.28,0.62 14.51,3.83 27.87,11.75 40.03,23.81 12.19,12.06 18.28,29.55 18.28,52.55 0,26.56 -6.92,45.71 -20.73,57.47 -13.86,11.79 -29.11,19.58 -45.8,23.4 -9.32,2.2 -18.41,3.49 -27.3,3.92 -8.88,0.4 -16.5,0.62 -22.78,0.62l-145.35 0 0 -304.64zm71.87 176.11l0 72.69 74.71 0c2.2,0 4.71,-0.21 7.59,-0.62 2.87,-0.41 5.98,-1.31 9.25,-2.66 5.46,-2.19 10.61,-5.96 15.37,-11.31 4.81,-5.31 7.21,-13.06 7.21,-23.17 0,-15.04 -5,-24.62 -14.98,-28.73 -9.99,-4.11 -20.89,-6.2 -32.66,-6.2 -0.26,0 -0.48,0 -0.6,0 -0.12,0 -0.34,0 -0.62,0l-65.26 0zm0 -120.28l0 64.47 66.49 0c1.38,0 2.76,-0.05 4.11,-0.21 1.38,-0.12 2.76,-0.34 4.1,-0.62 6.86,-1.1 13.08,-4.1 18.68,-9.03 5.6,-4.93 8.43,-12.2 8.43,-21.75 0,-11.52 -3.43,-19.67 -10.27,-24.44 -6.85,-4.77 -14.35,-7.45 -22.57,-8 -0.83,-0.28 -1.71,-0.42 -2.69,-0.42 -0.96,0 -1.96,0 -3.06,0l-63.22 0zm308.72 3.31l-91.95 0 0 -59.14 255.77 0 0 59.14 -91.96 0 0 245.5 -71.86 0 0 -245.5zm342 254.1c-55.84,-0.27 -95.45,-16.82 -118.85,-49.64 -23.4,-32.87 -35.11,-69.93 -35.11,-111.28 0,-2.73 0.06,-5.54 0.22,-8.43 0.12,-2.88 0.34,-5.66 0.61,-8.39 2.45,-36.14 15.19,-69.19 38.16,-99.15 23.01,-29.98 61.33,-44.97 114.97,-44.97 54.46,0 93.05,15.2 115.78,45.59 22.7,30.37 35.29,63.76 37.76,100.15 0,2.49 0.06,5 0.22,7.6 0.12,2.6 0.18,5.15 0.18,7.6 0,2.44 -0.06,4.99 -0.18,7.6 -0.16,2.59 -0.22,5.14 -0.22,7.59 -2.47,36.42 -15.06,69.74 -37.76,99.98 -22.73,30.24 -61.32,45.36 -115.78,45.36l0 0.39zm0 -59.1c22.72,0 39.35,-6.1 49.88,-18.27 10.54,-12.19 17.71,-25.51 21.54,-40.03 2.2,-7.94 3.56,-15.8 4.1,-23.62 0.56,-7.78 0.82,-14.42 0.82,-19.9 0,-5.72 -0.26,-12.32 -0.82,-19.69 -0.55,-7.38 -1.77,-15.08 -3.67,-23.01 -3.55,-14.77 -10.69,-28.3 -21.35,-40.65 -10.69,-12.3 -27.51,-18.47 -50.51,-18.47 -27.64,0 -46.75,8.83 -57.28,26.5 -10.54,17.64 -16.64,37 -18.26,58.07 -0.28,3 -0.49,5.95 -0.6,8.83 -0.16,2.88 -0.22,5.7 -0.22,8.43 0,3.55 0.06,7.05 0.22,10.48 0.12,3.42 0.48,6.89 1.01,10.48 1.92,20.25 8.2,38.8 18.9,55.62 10.65,16.81 29.4,25.24 56.24,25.24zm406.86 -57.08l71.43 0c-0.56,6.32 -1.65,13.08 -3.28,20.35 -1.65,7.26 -3.98,14.54 -6.98,21.95 -7.38,18.61 -20.79,35.73 -40.25,51.31 -19.42,15.59 -48.7,23.39 -87.85,23.39 -43.8,0 -76.03,-9.14 -96.69,-27.5 -20.65,-18.34 -34.68,-38.58 -42.06,-60.77 -4.38,-12.58 -7.2,-24.9 -8.43,-36.93 -1.22,-12.05 -1.84,-22.29 -1.84,-30.79 0,-45.42 7.88,-79.58 23.59,-102.43 15.74,-22.85 33.05,-38.97 51.95,-48.25 15.03,-7.4 29.28,-11.84 42.69,-13.35 13.42,-1.5 22.85,-2.23 28.33,-2.23 39.67,0 69.22,7.44 88.68,22.35 19.42,14.92 32.83,31.4 40.22,49.47 2.75,6.83 4.8,13.68 6.16,20.52 1.37,6.85 2.2,13.26 2.47,19.3l-70.64 0c-0.28,-3 -0.89,-6.37 -1.84,-10.05 -0.95,-3.71 -2.39,-7.46 -4.32,-11.3 -3.55,-7.66 -9.77,-14.77 -18.65,-21.34 -8.91,-6.57 -21.84,-9.87 -38.81,-9.87 -20.52,0 -35.72,5.76 -45.58,17.27 -9.86,11.49 -16.82,24.08 -20.95,37.77 -2.73,9.85 -4.36,19.36 -4.91,28.53 -0.55,9.18 -0.83,16.08 -0.83,20.73 0,26.83 3.95,47.08 11.89,60.77 7.96,13.69 16.72,23.39 26.31,29.14 7.93,4.64 15.37,7.47 22.37,8.41 6.98,0.98 11.69,1.44 14.14,1.44 15.87,0 28.06,-3.22 36.55,-9.66 8.48,-6.42 14.79,-13.63 18.9,-21.56 2.73,-5.17 4.71,-10.26 5.94,-15.16 1.22,-4.93 1.99,-8.75 2.27,-11.52zm187.21 -75.97l149.02 0 0 55.84 -149.02 0 0 68.58 173.25 0 0 59.12 -245.1 0 0 -304.64 241 0 0 59.14 -169.14 0 0 61.96zm280.82 -61.96l-91.99 0 0 -59.14 255.76 0 0 59.14 -91.96 0 0 245.5 -71.82 0 0 -245.5zm273.83 -59.14l0 110.45 75.93 0c40.53,0 68.42,9.58 83.78,28.73 15.32,19.17 23.64,40.25 25.02,63.22 0,1.37 0,2.69 0,3.88 0,1.26 0,2.54 0,3.93 0,32.03 -9.16,55.76 -27.5,71.24 -18.32,15.43 -45.58,23.19 -81.69,23.19l-147.39 0 0 -304.64 71.86 0zm0 169.56l0 75.95 61.17 0c12.87,0 23.96,-2.54 33.24,-7.59 9.31,-5.08 13.97,-15.13 13.97,-30.18 0,-15.06 -4.78,-25.2 -14.37,-30.37 -9.59,-5.21 -21.2,-7.81 -34.88,-7.81l-59.12 0z"/>
     <path class="fil3" d="M126.62 650.91l0 -591.81c-46.96,0 -85.03,132.48 -85.03,295.9 0,163.43 38.07,295.91 85.03,295.91zm2566.34 -295.91c0,163.42 -38.07,295.9 -85.03,295.91l0 -591.81c46.96,0.01 85.03,132.49 85.03,295.9l0 0z"/>
     <path class="fil4" d="M3373.58 527.64l74.44 0 0 -44.64 11.89 0c50.75,0 88.15,-12.46 112.26,-37.43 24.1,-24.94 36.14,-55.13 36.14,-90.57 0,-35.45 -12.04,-65.6 -36.14,-90.58 -24.11,-24.92 -61.51,-37.39 -112.26,-37.39l-11.89 0 0 -44.66 -74.44 0 0 44.66 -11.88 0c-50.76,0 -88.19,12.47 -112.26,37.39 -24.11,24.97 -36.15,55.13 -36.15,90.58 0,35.45 12.04,65.63 36.15,90.57 24.07,24.97 61.5,37.43 112.26,37.43l11.88 0 0 44.64zm-449.01 -327.41l0 315.53 74.4 0 0 -108.43 71.01 0c6.53,0 14.24,-0.37 23.19,-1.07 8.91,-0.7 18.07,-2.48 27.41,-5.3 16.73,-4.84 32.1,-14.54 46.17,-29.13 14.03,-14.61 21.04,-37.8 21.04,-69.53 0,-26.91 -8.15,-50.66 -24.47,-71.21 -16.3,-20.55 -46.83,-30.85 -91.62,-30.85l-147.12 0zm74.4 61.66l0 84.2 58.26 0c15.59,0 28.36,-2.91 38.25,-8.73 9.93,-5.79 14.89,-17.36 14.89,-34.65 0,-16.17 -4.66,-27.01 -14.03,-32.52 -9.34,-5.52 -22.39,-8.3 -39.11,-8.3l-58.26 0zm381.41 161.57l0 -136.92 -5.93 0c-29.48,0 -50.83,6.03 -64,18.08 -13.2,12.06 -19.79,28.85 -19.79,50.38 0,24.96 7.72,42.61 23.19,52.97 15.44,10.31 35.63,15.49 60.6,15.49l5.93 0zm60.81 0l5.97 0c25.21,0 45.49,-5.18 60.8,-15.49 15.31,-10.37 22.94,-28.02 22.94,-52.97 0,-21.53 -6.59,-38.32 -19.76,-50.38 -13.18,-12.04 -34.52,-18.08 -63.99,-18.08l-5.97 0 0 136.92z"/>
    </g>
    <path class="fil2" d="M103.46 956.13l0 -16.71 -6.36 0c-4.89,0 -10.17,-0.55 -15.79,-1.64 -5.62,-1.07 -11.19,-3.17 -16.71,-6.23 -5.52,-3.03 -10.08,-7.57 -13.72,-13.56 -3.65,-5.98 -5.47,-13.59 -5.47,-22.83 0,-11.94 2.94,-21.21 8.84,-27.77 5.86,-6.56 12.65,-10.93 20.39,-13.12 7.75,-2.16 15.21,-3.27 22.46,-3.27l6.35 0 0 -16.86 15.32 0 0 16.86 6.35 0c7.39,0 14.95,1.1 22.66,3.24 7.72,2.18 14.5,6.55 20.28,13.1 5.84,6.57 8.74,15.86 8.74,27.84 0,9.66 -1.98,17.55 -5.98,23.63 -4,6.08 -8.9,10.58 -14.67,13.48 -5.75,2.92 -11.32,4.84 -16.65,5.77 -5.32,0.93 -10.09,1.38 -14.39,1.38l-6.34 0 0 16.72 -15.32 -0.05 0 0zm0 -28.48l0 -64.84 -4.22 0c-25.03,0 -37.52,10.78 -37.52,32.37 0,5.25 0.83,10.25 2.49,14.95 1.62,4.68 5.25,8.81 10.87,12.28 5.56,3.49 13.64,5.22 24.15,5.22l4.23 0.01zm15.32 0l4.41 0c24.87,0 37.32,-10.83 37.32,-32.48 0,-12.96 -3.78,-21.6 -11.36,-25.88 -7.59,-4.34 -16.22,-6.47 -25.96,-6.47l-4.41 -0.01 0 64.84zm110.87 -39.52l59.79 0 0 12.55 -59.79 0 0 38.71 67.8 0.01 0 12.58 -83.11 0 0 -111.52 81.34 0 0 12.58 -66.03 0 0 35.09zm189.14 51.29l16.44 0 -1.45 37.75 -13.38 0.01 0 -25.18 -88.67 0 0 25.17 -13.38 0.01 -1.3 -37.76 10.25 0c14.48,-17.23 21.69,-42.54 21.69,-76l0 -22.94 69.78 0 0 98.93zm-15.33 -86.35l-39.14 0 0 13.88c0,9.73 -0.51,18.57 -1.51,26.59 -1.02,7.99 -2.94,15.83 -5.71,23.52 -2.76,7.7 -6.6,15.13 -11.51,22.34l57.86 0.01 0.01 -86.34 0 0zm79.95 35.06l59.79 0 0 12.55 -59.79 0 0 38.71 67.77 0.01 0 12.58 -83.11 0 0 -111.52 81.35 0 0 12.58 -66.01 0 0 35.09zm101.26 -47.64l46.46 0c25.75,0 38.62,10.65 38.62,32.01 0,23.38 -13.37,35.05 -40.07,35.05l-29.71 0 0 44.45 -15.3 0 -0.01 -111.51 0 0zm15.31 12.58l0 41.9 28.07 0c9.31,0 15.98,-1.91 20.02,-5.7 4.05,-3.84 6.06,-9.31 6.06,-16.44 0,-7.16 -2.22,-12.22 -6.65,-15.25 -4.47,-3.02 -10.94,-4.53 -19.41,-4.53l-28.09 0.02 0 0zm118.36 70.1l-10.78 28.87 -16.44 0 43.19 -111.54 16.31 0.01 43.2 111.53 -16.49 0 -10.73 -28.87 -48.25 0zm4.21 -12.58l39.86 0 -19.95 -54.96 -19.91 54.96zm89.58 41.42l0 -13.06c1.3,0.32 2.67,0.47 4.12,0.47 15.18,0 22.79,-16.99 22.79,-50.96l0 -47.98 71.56 0 0 111.53 -15.33 0 0 -98.93 -40.91 0 0 38.61c0,22.28 -3.28,38.04 -9.79,47.19 -6.54,9.18 -15.03,13.77 -25.47,13.77 -1.58,0.01 -3.9,-0.2 -6.97,-0.64zm158.31 -111.52l0 45.4 32.76 0c5.17,0 10.53,0.83 16.02,2.46 5.49,1.63 10.35,4.97 14.57,9.95 4.18,4.99 6.27,11.98 6.27,21.04 0,12.14 -3.75,20.61 -11.15,25.45 -7.47,4.78 -16.02,7.21 -25.71,7.21l-48.09 0 0 -111.52 15.33 0.01 0 0zm0 58l0 40.94 30.95 0c2.97,0 6.15,-0.51 9.59,-1.52 3.45,-1.02 6.55,-3.04 9.29,-6.15 2.76,-3.07 4.14,-7.37 4.14,-12.88 0,-13.6 -8.31,-20.39 -24.95,-20.39l-29.02 0.01 0 0zm120.85 1.13l0 52.39 -15.36 0 0 -111.52 15.36 0 0 46.51 57.37 0 0 -46.51 15.29 0 0 111.52 -15.29 0 0 -52.39 -57.37 0zm129.95 23.55l-10.78 28.86 -16.45 0 43.22 -111.54 16.3 0 43.22 111.54 -16.52 0 -10.72 -28.89 -48.26 0.02 0 0zm4.22 -12.58l39.82 0 -19.91 -54.96 -19.91 54.96zm173.99 -2.9l-25.87 0 -27.94 44.31 -18.86 0 30.95 -45.88c-3.54,-0.22 -7.11,-0.93 -10.73,-2.12 -3.58,-1.21 -6.91,-3.06 -10.02,-5.63 -3.08,-2.51 -5.54,-5.79 -7.42,-9.89 -1.86,-4.09 -2.76,-9 -2.76,-14.74 0,-8.54 2.69,-16.24 8.03,-23.1 5.38,-6.82 15.81,-10.2 31.24,-10.2l48.73 0 0 111.54 -15.33 0 0 -44.31 -0.02 0.01 0 0zm0 -54.62l-32.1 0c-9.45,0 -15.97,2.13 -19.56,6.47 -3.58,4.32 -5.37,9.14 -5.37,14.4 0,6.13 2.02,11.19 6.09,15.22 4.05,3.96 11.04,5.98 20.97,5.98l29.97 0 0 -42.07zm125.43 70.1l-10.78 28.87 -16.44 0 43.21 -111.54 16.29 0.01 43.22 111.53 -16.49 0 -10.74 -28.87 -48.28 0zm4.23 -12.58l39.82 0 -19.88 -54.96 -19.94 54.96zm101.31 -70.1l50.04 0c6.22,0 11.51,0.75 15.92,2.2 4.37,1.5 7.92,3.47 10.58,6.06 2.65,2.6 4.58,5.58 5.76,8.97 1.2,3.39 1.79,7.1 1.79,11.11 0,3.65 -0.79,7.18 -2.32,10.63 -1.54,3.42 -3.74,6.32 -6.64,8.72 -2.92,2.37 -6.27,3.9 -10.09,4.59l0 0.5c5.9,0.91 11.39,3.43 16.41,7.62 5.05,4.13 7.57,10.83 7.57,20.05 0,6.35 -1.35,11.8 -4.05,16.44 -2.69,4.61 -7.07,8.22 -13.09,10.77 -6.09,2.55 -13.92,3.89 -23.62,3.89l-48.24 0 0 -111.55 -0.03 0.01 0 0zm15.3 12.58l0 34.74 30.82 0c8.14,0 13.9,-1.68 17.29,-4.98 3.35,-3.35 5.06,-7.45 5.06,-12.39 0,-4.22 -1.45,-8.23 -4.35,-11.87 -2.9,-3.66 -8.77,-5.49 -17.47,-5.49l-31.34 0zm0 47.32l0 39.03 31.82 0c4.78,0 9.15,-0.51 13.01,-1.52 3.85,-1.02 7.04,-2.99 9.51,-5.9 2.46,-2.92 3.67,-7.03 3.67,-12.33 0,-7.08 -2.32,-12.1 -7.01,-14.94 -4.66,-2.9 -11.09,-4.34 -19.2,-4.34l-31.81 0zm139.3 -47.32l-37.21 0 0 -12.58 89.51 0 0 12.58 -36.99 0 0 98.93 -15.3 0 -0.01 -98.93 0 0zm133.02 102.27c-8.59,0 -16.31,-1.35 -23.1,-4.1 -6.79,-2.74 -12.5,-6.67 -17.16,-11.83 -4.61,-5.16 -8.13,-11.36 -10.57,-18.69 -2.37,-7.36 -3.58,-15.54 -3.58,-24.48 0,-10.17 1.44,-19 4.35,-26.57 2.88,-7.57 6.9,-13.7 11.94,-18.52 5.01,-4.8 10.76,-8.31 17.34,-10.6 6.5,-2.25 13.46,-3.38 20.82,-3.38 7.53,0 14.55,1.1 21.03,3.35 6.55,2.26 12.28,5.79 17.31,10.53 5.07,4.8 8.9,10.95 11.84,18.54 2.84,7.61 4.32,16.45 4.32,26.66 0,9.09 -1.2,17.28 -3.54,24.52 -2.4,7.25 -5.87,13.47 -10.56,18.65 -4.64,5.16 -10.37,9.09 -17.2,11.84 -6.87,2.74 -14.64,4.09 -23.24,4.09zm-0.03 -12.58c6.46,0 12.11,-1.1 16.93,-3.34 4.85,-2.26 8.83,-5.48 11.97,-9.59 3.17,-4.11 5.49,-9.05 7,-14.7 1.51,-5.72 2.26,-11.97 2.26,-18.86 0,-10.09 -1.42,-18.34 -4.32,-24.75 -2.87,-6.42 -6.4,-11.19 -10.65,-14.28 -4.22,-3.13 -8.3,-5.16 -12.27,-6.09 -3.97,-0.93 -7.61,-1.41 -10.95,-1.41 -10.08,0 -19.04,3.42 -26.65,10.24 -7.6,6.82 -11.45,18.95 -11.45,36.27 0,6.78 0.94,13.6 2.78,20.49 1.81,6.93 5.54,12.97 11.23,18.21 5.65,5.21 13.73,7.81 24.11,7.81zm144.99 9.25l-37.13 -93.65 -0.35 0 0.33 4.27 0 89.37 -15.32 0 0 -111.53 23.02 0 35.68 91.77 35.66 -91.77 22.98 0 0 111.53 -15.33 0 0 -89.37 0.3 -4.27 -0.48 0 -36.99 93.68 -12.42 0 0 -0.04 0.05 0zm157.35 3.34c-8.64,0 -16.35,-1.35 -23.12,-4.1 -6.81,-2.74 -12.53,-6.67 -17.16,-11.83 -4.61,-5.16 -8.16,-11.36 -10.59,-18.69 -2.4,-7.36 -3.59,-15.54 -3.59,-24.48 0,-10.17 1.44,-19 4.35,-26.57 2.88,-7.57 6.92,-13.7 11.93,-18.52 5.03,-4.8 10.81,-8.31 17.31,-10.6 6.51,-2.25 13.46,-3.38 20.88,-3.38 7.48,0 14.54,1.1 21.05,3.35 6.53,2.26 12.3,5.79 17.28,10.53 5.04,4.8 8.92,10.95 11.83,18.54 2.84,7.61 4.26,16.45 4.26,26.66 0,9.09 -1.18,17.28 -3.49,24.52 -2.35,7.25 -5.88,13.47 -10.57,18.65 -4.62,5.16 -10.38,9.09 -17.22,11.84 -6.82,2.74 -14.58,4.09 -23.16,4.09zm-0.01 -12.58c6.44,0 12.1,-1.1 16.91,-3.34 4.84,-2.26 8.78,-5.48 11.97,-9.59 3.12,-4.11 5.48,-9.05 7,-14.7 1.51,-5.72 2.28,-11.97 2.28,-18.86 0,-10.09 -1.46,-18.34 -4.33,-24.75 -2.87,-6.42 -6.39,-11.19 -10.65,-14.28 -4.22,-3.13 -8.32,-5.16 -12.27,-6.09 -3.96,-0.93 -7.63,-1.41 -10.92,-1.41 -10.14,0 -19.03,3.42 -26.67,10.24 -7.61,6.82 -11.46,18.95 -11.46,36.27 0,6.78 0.92,13.6 2.74,20.49 1.82,6.93 5.58,12.97 11.26,18.21 5.64,5.21 13.74,7.81 24.15,7.81zm107.79 -89.69l0 33.46 35.09 0c6.23,0 12.12,0.83 17.75,2.44 5.59,1.61 10.38,4.88 14.4,9.8 3.98,4.89 5.94,11.84 5.94,20.89 0,5.27 -0.99,10.27 -3.01,15.09 -2.04,4.8 -5.86,8.88 -11.53,12.22 -5.6,3.35 -13.38,5.05 -23.43,5.05l-50.55 -0.01 0 -111.53 81.02 0 0 12.58 -65.68 0.02 0 0zm0 46.04l0 40.31 31.96 0c17.09,0 25.59,-6.55 25.59,-19.57 0,-13.82 -8.52,-20.71 -25.59,-20.71l-31.96 0 0 -0.04zm125.76 31.07l60.81 -89.7 15.29 0 0 111.52 -15.3 0 0 -90.33 -60.81 90.33 -15.32 0 0 -111.52 15.33 0 0 89.7zm108.91 21.83l0 -13.06c1.3,0.32 2.7,0.47 4.12,0.47 15.18,0 22.79,-16.99 22.79,-50.96l0 -47.98 71.56 0 0 111.53 -15.32 0 0 -98.93 -40.91 0 0 38.61c0,22.28 -3.31,38.04 -9.82,47.19 -6.53,9.18 -14.97,13.77 -25.42,13.77 -1.59,0.01 -3.91,-0.2 -7,-0.64zm158.32 -111.52l0 45.4 32.76 0c5.16,0 10.53,0.83 15.98,2.46 5.54,1.63 10.37,4.97 14.58,9.95 4.18,4.99 6.28,11.98 6.28,21.04 0,12.14 -3.72,20.61 -11.16,25.45 -7.44,4.78 -16.01,7.21 -25.67,7.21l-48.09 0 0 -111.52 15.32 0.01 0 0zm0 58l0 40.94 30.95 0c2.94,0 6.11,-0.51 9.55,-1.52 3.44,-1.02 6.56,-3.04 9.31,-6.15 2.76,-3.07 4.14,-7.37 4.14,-12.88 0,-13.6 -8.31,-20.39 -24.93,-20.39l-29.01 0.01 0 0zm120.81 1.13l0 52.39 -15.32 0 0 -111.52 15.32 0 0 46.51 57.4 0 0 -46.51 15.32 0 0 111.52 -15.32 0 0 -52.39 -57.4 0zm129.97 23.55l-10.76 28.87 -16.43 0 43.22 -111.54 16.28 0.01 43.17 111.53 -16.48 0 -10.74 -28.87 -48.26 0zm4.25 -12.58l39.82 0 -19.9 -54.96 -19.93 54.96zm174 -2.9l-25.88 0 -27.9 44.31 -18.92 0 31.01 -45.88c-3.57,-0.22 -7.1,-0.93 -10.72,-2.12 -3.58,-1.21 -6.94,-3.06 -10.05,-5.63 -3.11,-2.51 -5.56,-5.79 -7.41,-9.89 -1.88,-4.09 -2.8,-9 -2.8,-14.74 0,-8.54 2.7,-16.24 8.07,-23.1 5.34,-6.82 15.78,-10.2 31.24,-10.2l48.7 0 0 111.54 -15.3 0 -0.04 -44.3 0 0zm0 -54.62l-32.08 0c-9.5,0 -16.04,2.13 -19.6,6.47 -3.58,4.32 -5.37,9.14 -5.37,14.4 0,6.13 2.04,11.19 6.11,15.22 4.06,3.96 11.07,5.98 20.97,5.98l30 0 -0.03 -42.07 0 0zm193.42 62l15.33 0c-0.7,5.99 -2.53,11.96 -5.47,17.94 -2.87,5.98 -7.82,11.17 -14.82,15.65 -7.01,4.47 -16.33,6.67 -27.99,6.67 -11.79,0 -21.77,-2.44 -29.96,-7.37 -8.23,-4.89 -14.3,-11.67 -18.29,-20.35 -4.05,-8.63 -6.02,-18.45 -6.02,-29.45 0,-4.94 0.35,-10.35 1.2,-16.2 0.76,-5.85 2.91,-12.33 6.31,-19.36 3.39,-7.08 8.87,-13.11 16.37,-18.03 7.57,-4.97 17.52,-7.44 29.88,-7.44 10.68,0 19.47,1.69 26.26,5.07 6.79,3.39 11.86,7.92 15.1,13.61 3.27,5.64 5.24,12.01 5.93,19.12l-15.29 0c-0.64,-6.56 -3.38,-12.41 -8.26,-17.51 -4.86,-5.14 -12.78,-7.69 -23.73,-7.69 -7.15,0 -13.24,1.4 -18.15,4.19 -4.92,2.74 -8.77,6.44 -11.58,11.09 -2.85,4.62 -4.87,9.71 -6,15.2 -1.13,5.51 -1.7,11.28 -1.7,17.32 0,5.92 0.8,11.56 2.39,17 1.62,5.47 4.03,10.31 7.28,14.57 3.25,4.22 7.3,7.56 12.18,10.04 4.88,2.45 10.48,3.65 16.81,3.65 6.39,0 11.97,-1.27 16.72,-3.82 4.81,-2.56 8.53,-5.95 11.11,-10.2 2.6,-4.29 4.09,-8.83 4.4,-13.72zm67.46 -26.94l59.8 0 0 12.55 -59.8 0 0 38.71 67.83 0.01 0 12.58 -83.11 0 0 -111.52 81.3 0 0 12.58 -66.03 0 0 35.09zm126.72 -35.06l-37.16 0 0 -12.58 89.51 0 0 12.58 -37.05 0 0 98.93 -15.3 0 0 -98.93 0 0zm100.47 -12.58l0 45.4 32.78 0c5.15,0 10.5,0.83 15.98,2.46 5.52,1.63 10.36,4.97 14.58,9.95 4.18,4.99 6.26,11.98 6.26,21.04 0,12.14 -3.7,20.61 -11.16,25.45 -7.42,4.78 -16.02,7.21 -25.65,7.21l-48.09 0 0 -111.52 15.31 0.01 0 0zm0 58l0 40.94 30.94 0c2.93,0 6.15,-0.51 9.58,-1.52 3.43,-1.02 6.56,-3.04 9.3,-6.15 2.74,-3.07 4.14,-7.37 4.14,-12.88 0,-13.6 -8.31,-20.39 -24.93,-20.39l-29.03 0.01 0 0z"/>
   </g>
   <g>
    <path class="fil5" d="M5584.34 667.61l0 291.04 -52.72 0 0 -244.91 -125.22 0 -3.3 64.8c-1.84,39.18 -5.31,71.85 -10.44,98.03 -5.12,26.18 -13.55,47.13 -25.27,62.88 -11.71,15.74 -28,23.61 -48.87,23.61 -9.52,0 -20.32,-1.64 -32.4,-4.94l3.3 -44.48c4.76,1.1 9.15,1.65 13.18,1.65 14.65,0 25.63,-6.4 32.95,-19.22 7.32,-12.81 12.08,-28 14.28,-45.57 2.19,-17.57 4.21,-42.65 6.04,-75.24l4.94 -107.63 223.52 0zm365.22 147.17c0,4.03 -0.37,9.34 -1.1,15.93l-236.15 0c3.29,25.62 14.55,46.22 33.77,61.78 19.22,15.56 43.12,23.34 71.67,23.34 34.78,0 62.79,-11.72 84.03,-35.15l29.1 34.05c-13.18,15.37 -29.56,27.08 -49.15,35.14 -19.59,8.06 -41.47,12.09 -65.63,12.09 -30.75,0 -58.02,-6.32 -81.82,-18.95 -23.8,-12.62 -42.2,-30.29 -55.2,-52.99 -12.99,-22.7 -19.49,-48.33 -19.49,-76.89 0,-28.19 6.32,-53.64 18.95,-76.33 12.63,-22.69 30.02,-40.36 52.18,-52.99 22.15,-12.63 47.14,-18.95 74.96,-18.95 27.83,0 52.63,6.32 74.42,18.95 21.78,12.63 38.81,30.3 51.07,52.99 12.27,22.69 18.4,48.69 18.4,77.98zm-143.89 -105.44c-25.26,0 -46.41,7.69 -63.43,23.07 -17.03,15.37 -27,35.51 -29.93,60.4l186.73 0c-2.93,-24.53 -12.91,-44.57 -29.93,-60.13 -17.02,-15.56 -38.17,-23.34 -63.43,-23.34zm430.57 4.4l-106.54 0 0 244.91 -52.73 0 0 -244.91 -106.55 0 0 -46.13 265.81 0 0 46.13z"/>
    <path class="fil5" d="M5580.59 344.59l33.69 0 0 78.95 105.98 0 0 -78.95 33.69 0 0 185.97 -33.69 0 0 -77.89 -105.98 0 0 77.89 -33.69 0 0 -185.97zm305.3 -1.75c25.74,0 45.44,6.31 59.13,18.95 13.69,12.63 20.53,31.47 20.53,56.49l0 112.28 -31.93 0 0 -24.56c-5.62,8.65 -13.63,15.27 -24.04,19.83 -10.41,4.56 -22.76,6.85 -37.02,6.85 -20.82,0 -37.49,-5.04 -50.01,-15.09 -12.52,-10.06 -18.78,-23.27 -18.78,-39.65 0,-16.38 5.97,-29.54 17.9,-39.48 11.93,-9.95 30.88,-14.92 56.84,-14.92l53.34 0 0 -6.66c0,-14.51 -4.21,-25.61 -12.63,-33.34 -8.42,-7.72 -20.82,-11.58 -37.2,-11.58 -10.99,0 -21.75,1.81 -32.28,5.44 -10.53,3.63 -19.42,8.48 -26.67,14.57l-14.03 -25.26c9.58,-7.72 21.05,-13.63 34.38,-17.73 13.34,-4.09 27.5,-6.13 42.47,-6.13zm-7.72 163.86c12.87,0 23.98,-2.87 33.34,-8.6 9.35,-5.73 16.14,-13.86 20.35,-24.38l0 -25.97 -51.93 0c-28.54,0 -42.81,9.59 -42.81,28.77 0,9.36 3.62,16.72 10.87,22.11 7.25,5.38 17.32,8.07 30.18,8.07zm362.51 -162.12l0 185.97 -30.54 0 0 -135.79 -69.47 114.74 -14.75 0 -68.78 -115.1 0 136.15 -30.88 0 0 -185.97 34.74 0 72.99 125.62 75.09 -125.62 31.59 0z"/>
    <path class="fil6" d="M4583.46 10.82l0 946.46 -133.85 0 0 -828.83 -213.63 0 0 -117.63 347.48 0zm513.79 -10.82c127.1,0 225.12,41.01 294.08,123.04 68.95,82.03 103.43,198.3 103.43,348.84 0,43.7 -3.21,84.74 -9.64,123.1l-133.55 0c5.32,-30.71 7.99,-64.08 7.99,-100.11l0 -33.8c-27.04,40.56 -64.45,71.43 -112.23,92.61 -47.77,21.19 -101.4,31.78 -160.9,31.78 -62.2,0 -117.85,-11.72 -166.98,-35.15 -49.13,-23.44 -87.44,-57.01 -114.93,-100.73 -27.5,-43.71 -41.24,-93.97 -41.24,-150.75 0,-59.49 14.64,-111.77 43.94,-156.85 29.3,-45.07 69.19,-80 119.66,-104.79 50.48,-24.79 107.26,-37.18 170.36,-37.18zm54.81 958.31c-33.07,6.53 -68.01,9.79 -104.84,9.79 -45.97,0 -89.24,-4.73 -129.81,-14.2 -40.56,-9.46 -75.71,-23.21 -105.45,-41.24l51.37 -105.46c45.97,29.75 106.82,44.62 182.53,44.62 38.72,0 74.12,-4.73 106.19,-14.18l0 120.68zm-42.65 -482.37c42.37,0 80.22,-8.11 113.58,-24.34 33.35,-16.23 59.27,-38.31 77.74,-66.26 18.48,-27.94 27.72,-59.04 27.72,-93.29 0,-33.35 -8.78,-63.77 -26.36,-91.27 -17.57,-27.49 -43.27,-49.57 -77.07,-66.25 -33.8,-16.68 -74.59,-25.01 -122.37,-25.01 -62.19,0 -112.44,16.67 -150.75,50.02 -38.31,33.35 -57.47,77.97 -57.47,133.85 0,55.89 19.38,100.28 58.14,133.18 38.76,32.9 91.04,49.36 156.84,49.36z"/>
   </g>
  </g>
 </g>
</svg>
