<?xml version="1.0" encoding="UTF-8"?>
<!DOCTYPE svg PUBLIC "-//W3C//DTD SVG 1.1//EN" "http://www.w3.org/Graphics/SVG/1.1/DTD/svg11.dtd">
<!-- Creator: CorelDRAW X8 -->
<svg xmlns="http://www.w3.org/2000/svg" xml:space="preserve" width="139px" height="139px" version="1.1" style="shape-rendering:geometricPrecision; text-rendering:geometricPrecision; image-rendering:optimizeQuality; fill-rule:evenodd; clip-rule:evenodd"
viewBox="0 0 139 139"
 xmlns:xlink="http://www.w3.org/1999/xlink">
 <defs>
  <style type="text/css">
   <![CDATA[
    .fil0 {fill:#8A8A8A}
   ]]>
  </style>
 </defs>
 <g id="Слой_x0020_1">
  <metadata id="CorelCorpID_0Corel-Layer"/>
  <path class="fil0" d="M32 105c-18,0 -32,-14 -32,-32 0,-12 7,-23 18,-29 3,-18 19,-32 38,-32 12,0 23,6 30,15 3,-1 6,-2 9,-2 15,0 27,12 27,26 10,5 17,15 17,26 0,16 -13,28 -28,28l-79 0zm24 -83c-15,0 -28,13 -28,29l0 1c-10,2 -17,11 -17,21 0,12 9,22 21,22l79 0c10,0 18,-8 18,-18 0,-9 -8,-17 -18,-17 -1,0 -1,0 -2,0 1,-3 2,-5 2,-8 0,-9 -7,-16 -16,-16 -5,0 -9,2 -12,5 -4,-11 -14,-19 -27,-19z"/>
 </g>
</svg>
