<?xml version="1.0" encoding="UTF-8"?>
<!DOCTYPE svg PUBLIC "-//W3C//DTD SVG 1.1//EN" "http://www.w3.org/Graphics/SVG/1.1/DTD/svg11.dtd">
<!-- Creator: CorelDRAW X8 -->
<svg xmlns="http://www.w3.org/2000/svg" xml:space="preserve" width="139px" height="139px" version="1.1" style="shape-rendering:geometricPrecision; text-rendering:geometricPrecision; image-rendering:optimizeQuality; fill-rule:evenodd; clip-rule:evenodd"
viewBox="0 0 139 139"
 xmlns:xlink="http://www.w3.org/1999/xlink">
 <defs>
  <style type="text/css">
   <![CDATA[
    .fil0 {fill:#8A8A8A}
   ]]>
  </style>
 </defs>
 <g id="Слой_x0020_1">
  <metadata id="CorelCorpID_0Corel-Layer"/>
  <path class="fil0" d="M70 53c8,0 16,8 16,17 0,8 -8,16 -16,16 -9,0 -17,-8 -17,-16 0,-9 8,-17 17,-17z"/>
  <path class="fil0" d="M70 4c15,0 28,5 39,13l0 0 8 -8 13 13 -8 8 0 0c8,11 13,24 13,40 0,15 -5,28 -13,39l0 0 8 8 -13 13 -8 -8 0 0c-11,8 -24,13 -39,13 -16,0 -29,-5 -40,-13l0 0 -8 8 -13 -13 8 -8 0 0c-8,-11 -13,-24 -13,-39 0,-16 5,-29 13,-40l0 0 -8 -8 13 -13 8 8 0 0c11,-8 24,-13 40,-13zm0 10c-31,0 -56,25 -56,56 0,30 25,55 56,55 30,0 55,-25 55,-55 0,-31 -25,-56 -55,-56z"/>
  <path class="fil0" d="M70 23c25,0 46,21 46,47 0,25 -21,46 -46,46 -26,0 -47,-21 -47,-46 0,-26 21,-47 47,-47zm0 8c-22,0 -39,17 -39,39 0,21 17,38 39,38 21,0 38,-17 38,-38 0,-22 -17,-39 -38,-39z"/>
 </g>
</svg>
