<?xml version="1.0" encoding="UTF-8"?>
<!DOCTYPE svg PUBLIC "-//W3C//DTD SVG 1.1//EN" "http://www.w3.org/Graphics/SVG/1.1/DTD/svg11.dtd">
<!-- Creator: CorelDRAW X8 -->
<svg xmlns="http://www.w3.org/2000/svg" xml:space="preserve" width="139px" height="139px" version="1.1" style="shape-rendering:geometricPrecision; text-rendering:geometricPrecision; image-rendering:optimizeQuality; fill-rule:evenodd; clip-rule:evenodd"
viewBox="0 0 139 139"
 xmlns:xlink="http://www.w3.org/1999/xlink">
 <defs>
  <style type="text/css">
   <![CDATA[
    .fil0 {fill:#8A8A8A}
   ]]>
  </style>
 </defs>
 <g id="Слой_x0020_1">
  <metadata id="CorelCorpID_0Corel-Layer"/>
  <path class="fil0" d="M53 8c24,0 44,20 44,45 0,24 -20,44 -44,44 -25,0 -45,-20 -45,-44 0,-25 20,-45 45,-45zm0 11c-19,0 -34,15 -34,34 0,19 15,34 34,34 19,0 34,-15 34,-34 0,-19 -15,-34 -34,-34z"/>
  <polygon class="fil0" points="98,105 105,98 131,123 123,131 "/>
 </g>
</svg>
