<?xml version="1.0" encoding="UTF-8"?>
<!DOCTYPE svg PUBLIC "-//W3C//DTD SVG 1.1//EN" "http://www.w3.org/Graphics/SVG/1.1/DTD/svg11.dtd">
<!-- Creator: CorelDRAW X8 -->
<svg xmlns="http://www.w3.org/2000/svg" xml:space="preserve" width="139px" height="139px" version="1.1" style="shape-rendering:geometricPrecision; text-rendering:geometricPrecision; image-rendering:optimizeQuality; fill-rule:evenodd; clip-rule:evenodd"
viewBox="0 0 139 139"
 xmlns:xlink="http://www.w3.org/1999/xlink">
 <defs>
  <style type="text/css">
   <![CDATA[
    .fil0 {fill:#8A8A8A}
   ]]>
  </style>
 </defs>
 <g id="Слой_x0020_1">
  <metadata id="CorelCorpID_0Corel-Layer"/>
  <path class="fil0" d="M70 29c-5,0 -10,1 -14,2l-1 14 -9 -11c-10,5 -19,12 -24,20l11 11 -16 -1c-2,5 -3,11 -3,17 0,4 1,9 2,13l-10 2c-2,-5 -2,-10 -2,-15 0,-34 29,-62 66,-62 36,0 65,28 65,62 0,5 0,10 -2,15l-10 -2c1,-4 2,-9 2,-13 0,-6 -1,-12 -3,-17l-16 1 11 -11c-5,-8 -14,-15 -24,-20l-9 11 -1 -14c-4,-1 -9,-2 -13,-2z"/>
  <path class="fil0" d="M90 52l9 5 -19 33c4,4 4,10 1,15 -3,6 -8,8 -14,7l-3 5 -9 -5 3 -5c-4,-4 -4,-11 -1,-16 3,-5 9,-8 14,-7l19 -32z"/>
 </g>
</svg>
