<?xml version="1.0" encoding="UTF-8"?>
<!DOCTYPE svg PUBLIC "-//W3C//DTD SVG 1.1//EN" "http://www.w3.org/Graphics/SVG/1.1/DTD/svg11.dtd">
<!-- Creator: CorelDRAW X8 -->
<svg xmlns="http://www.w3.org/2000/svg" xml:space="preserve" width="39px" height="80px" version="1.1" style="shape-rendering:geometricPrecision; text-rendering:geometricPrecision; image-rendering:optimizeQuality; fill-rule:evenodd; clip-rule:evenodd"
viewBox="0 0 39 80"
 xmlns:xlink="http://www.w3.org/1999/xlink">
 <defs>
  <style type="text/css">
   <![CDATA[
    .fil0 {fill:#8A8A8A}
   ]]>
  </style>
 </defs>
 <g id="Слой_x0020_1">
  <metadata id="CorelCorpID_0Corel-Layer"/>
  <polygon class="fil0" points="25,68 19,53 14,68 18,68 18,77 21,77 21,68 "/>
  <path class="fil0" d="M7 67c-4,-1 -7,-5 -7,-9 0,-3 2,-6 5,-8 1,-5 5,-9 11,-9 3,0 6,2 8,4 1,0 2,0 3,0 4,0 7,3 7,7 3,1 5,4 5,7 0,4 -3,8 -7,8l0 -3c2,0 4,-2 4,-5 0,-2 -2,-5 -5,-5 0,0 0,0 0,0 0,0 0,-1 0,-2 0,-2 -2,-4 -4,-4 -2,0 -3,0 -4,1 -1,-3 -4,-5 -7,-5 -5,0 -8,4 -8,8l0 0c-3,1 -5,3 -5,6 0,3 2,5 4,6l0 3z"/>
  <path class="fil0" d="M18 12l0 8 3 0 0 -8 -3 0zm0 11l0 3 3 0 0 -3 -3 0z"/>
  <path class="fil0" d="M20 2c9,0 16,8 16,17 0,9 -7,17 -16,17 -10,0 -17,-8 -17,-17 0,-9 7,-17 17,-17zm0 3c7,0 13,7 13,14 0,7 -6,14 -13,14 -8,0 -14,-7 -14,-14 0,-7 6,-14 14,-14z"/>
 </g>
</svg>
