<?xml version="1.0" encoding="UTF-8"?>
<!DOCTYPE svg PUBLIC "-//W3C//DTD SVG 1.1//EN" "http://www.w3.org/Graphics/SVG/1.1/DTD/svg11.dtd">
<!-- Creator: CorelDRAW X8 -->
<svg xmlns="http://www.w3.org/2000/svg" xml:space="preserve" width="139px" height="139px" version="1.1" style="shape-rendering:geometricPrecision; text-rendering:geometricPrecision; image-rendering:optimizeQuality; fill-rule:evenodd; clip-rule:evenodd"
viewBox="0 0 139 139"
 xmlns:xlink="http://www.w3.org/1999/xlink">
 <defs>
  <style type="text/css">
   <![CDATA[
    .fil0 {fill:#8A8A8A}
   ]]>
  </style>
 </defs>
 <g id="Слой_x0020_1">
  <metadata id="CorelCorpID_0Corel-Layer"/>
  <polygon class="fil0" points="89,96 69,43 50,96 64,96 64,128 75,128 75,96 "/>
  <path class="fil0" d="M25 92c-14,-3 -25,-16 -25,-31 0,-13 7,-24 18,-29 3,-18 19,-32 38,-32 12,0 23,6 30,14 3,-1 6,-1 9,-1 15,0 27,12 27,26 10,4 17,14 17,26 0,15 -11,26 -25,28l0 -10c8,-2 15,-9 15,-18 0,-10 -8,-18 -18,-18 -1,0 -1,0 -2,0 1,-2 2,-4 2,-7 0,-9 -7,-16 -16,-16 -5,0 -9,2 -12,5 -4,-11 -14,-19 -27,-19 -15,0 -28,13 -28,29l0 1c-10,2 -17,11 -17,21 0,9 6,17 14,20l0 11z"/>
 </g>
</svg>
