<?xml version="1.0" encoding="UTF-8"?>
<!DOCTYPE svg PUBLIC "-//W3C//DTD SVG 1.1//EN" "http://www.w3.org/Graphics/SVG/1.1/DTD/svg11.dtd">
<!-- Creator: CorelDRAW X8 -->
<svg xmlns="http://www.w3.org/2000/svg" xml:space="preserve" width="139px" height="139px" version="1.1" style="shape-rendering:geometricPrecision; text-rendering:geometricPrecision; image-rendering:optimizeQuality; fill-rule:evenodd; clip-rule:evenodd"
viewBox="0 0 139 139"
 xmlns:xlink="http://www.w3.org/1999/xlink">
 <defs>
  <style type="text/css">
   <![CDATA[
    .fil0 {fill:#8A8A8A}
   ]]>
  </style>
 </defs>
 <g id="Слой_x0020_1">
  <metadata id="CorelCorpID_0Corel-Layer"/>
  <polygon class="fil0" points="17,115 115,17 122,24 24,122 "/>
  <path class="fil0" d="M127 101c3,4 5,9 5,14l-11 0c0,-3 -1,-6 -3,-9 -6,-10 -19,-14 -29,-8 -7,4 -10,10 -11,17l-10 0c0,-10 6,-21 16,-27 15,-8 35,-3 43,13z"/>
  <path class="fil0" d="M71 23c0,11 -5,22 -16,28 -15,9 -35,4 -43,-12 -3,-5 -5,-11 -5,-16l11 0c0,4 1,7 3,11 6,10 19,14 29,8 7,-4 11,-11 11,-19l10 0z"/>
 </g>
</svg>
