<?xml version="1.0" encoding="UTF-8"?>
<!DOCTYPE svg PUBLIC "-//W3C//DTD SVG 1.1//EN" "http://www.w3.org/Graphics/SVG/1.1/DTD/svg11.dtd">
<!-- Creator: CorelDRAW X8 -->
<svg xmlns="http://www.w3.org/2000/svg" xml:space="preserve" width="139px" height="139px" version="1.1" style="shape-rendering:geometricPrecision; text-rendering:geometricPrecision; image-rendering:optimizeQuality; fill-rule:evenodd; clip-rule:evenodd"
viewBox="0 0 139 139"
 xmlns:xlink="http://www.w3.org/1999/xlink">
 <defs>
  <style type="text/css">
   <![CDATA[
    .fil0 {fill:#8A8A8A}
   ]]>
  </style>
 </defs>
 <g id="Слой_x0020_1">
  <metadata id="CorelCorpID_0Corel-Layer"/>
  <path class="fil0" d="M64 41l0 32 11 0 0 -32 -11 0zm0 42l0 11 11 0 0 -11 -11 0z"/>
  <path class="fil0" d="M70 9c32,0 58,26 58,59 0,32 -26,59 -58,59 -33,0 -59,-27 -59,-59 0,-33 26,-59 59,-59zm0 11c-27,0 -49,21 -49,48 0,26 22,48 49,48 26,0 48,-22 48,-48 0,-27 -22,-48 -48,-48z"/>
 </g>
</svg>
