<?xml version="1.0" encoding="UTF-8"?>
<!DOCTYPE svg PUBLIC "-//W3C//DTD SVG 1.1//EN" "http://www.w3.org/Graphics/SVG/1.1/DTD/svg11.dtd">
<!-- Creator: CorelDRAW X8 -->
<svg xmlns="http://www.w3.org/2000/svg" xml:space="preserve" width="139px" height="139px" version="1.1" style="shape-rendering:geometricPrecision; text-rendering:geometricPrecision; image-rendering:optimizeQuality; fill-rule:evenodd; clip-rule:evenodd"
viewBox="0 0 139 139"
 xmlns:xlink="http://www.w3.org/1999/xlink">
 <defs>
  <style type="text/css">
   <![CDATA[
    .fil0 {fill:#8A8A8A}
   ]]>
  </style>
 </defs>
 <g id="Слой_x0020_1">
  <metadata id="CorelCorpID_0Corel-Layer"/>
  <polygon class="fil0" points="128,117 11,117 11,107 128,107 "/>
  <polygon class="fil0" points="11,128 11,117 27,117 27,128 "/>
  <polygon class="fil0" points="61,128 61,117 78,117 78,128 "/>
  <polygon class="fil0" points="112,128 112,117 128,117 128,128 "/>
  <g id="_960987408">
   <polygon class="fil0" points="117,64 98,11 79,64 93,64 93,96 103,96 103,64 "/>
   <polygon class="fil0" points="60,64 41,11 22,64 36,64 36,96 46,96 46,64 "/>
  </g>
 </g>
</svg>
