<?xml version="1.0" encoding="UTF-8"?>
<!DOCTYPE svg PUBLIC "-//W3C//DTD SVG 1.1//EN" "http://www.w3.org/Graphics/SVG/1.1/DTD/svg11.dtd">
<!-- Creator: CorelDRAW X8 -->
<svg xmlns="http://www.w3.org/2000/svg" xml:space="preserve" width="139px" height="139px" version="1.1" style="shape-rendering:geometricPrecision; text-rendering:geometricPrecision; image-rendering:optimizeQuality; fill-rule:evenodd; clip-rule:evenodd"
viewBox="0 0 139 139"
 xmlns:xlink="http://www.w3.org/1999/xlink">
 <defs>
  <style type="text/css">
   <![CDATA[
    .fil0 {fill:#8A8A8A}
   ]]>
  </style>
 </defs>
 <g id="Слой_x0020_1">
  <metadata id="CorelCorpID_0Corel-Layer"/>
  <path class="fil0" d="M0 13l30 0c1,-3 2,-5 4,-7 6,-6 17,-6 23,0 6,6 6,16 0,22 -6,7 -17,7 -23,0 -1,-1 -2,-3 -3,-4l-31 0 0 -11z"/>
  <polygon class="fil0" points="71,115 139,115 139,126 71,126 "/>
  <path class="fil0" d="M0 115l31 0c1,-2 2,-3 3,-4 6,-7 17,-7 23,0 6,6 6,16 0,22 -6,6 -17,6 -23,0 -2,-2 -3,-5 -4,-7l-30 0 0 -11z"/>
  <polygon class="fil0" points="68,64 0,64 0,75 68,75 "/>
  <path class="fil0" d="M139 64l-30 0c-1,-2 -2,-4 -4,-6 -6,-6 -17,-6 -23,0 -6,6 -6,17 0,23 6,6 17,6 23,0 2,-2 3,-4 4,-6l30 0 0 -11z"/>
  <polygon class="fil0" points="71,13 139,13 139,24 71,24 "/>
 </g>
</svg>
