<?xml version="1.0" encoding="UTF-8"?>
<!DOCTYPE svg PUBLIC "-//W3C//DTD SVG 1.1//EN" "http://www.w3.org/Graphics/SVG/1.1/DTD/svg11.dtd">
<!-- Creator: CorelDRAW X8 -->
<svg xmlns="http://www.w3.org/2000/svg" xml:space="preserve" width="139px" height="139px" version="1.1" style="shape-rendering:geometricPrecision; text-rendering:geometricPrecision; image-rendering:optimizeQuality; fill-rule:evenodd; clip-rule:evenodd"
viewBox="0 0 139 139"
 xmlns:xlink="http://www.w3.org/1999/xlink">
 <defs>
  <style type="text/css">
   <![CDATA[
    .fil0 {fill:#8A8A8A}
   ]]>
  </style>
 </defs>
 <g id="Слой_x0020_1">
  <metadata id="CorelCorpID_0Corel-Layer"/>
  <path class="fil0" d="M101 45c0,17 -14,32 -31,32 -18,0 -32,-15 -32,-32l0 -6 0 0c0,-18 14,-32 32,-32 17,0 31,14 31,32l0 0 0 6zm-56 0c0,13 11,24 25,24 13,0 24,-11 24,-24l0 -6 0 0c0,-14 -11,-24 -24,-24 -14,0 -25,10 -25,24l0 0 0 6z"/>
  <path class="fil0" d="M70 69c25,0 46,21 46,46l0 7 -8 0 0 -7 0 0c0,-21 -17,-38 -38,-38 -22,0 -39,17 -39,38l0 7 -8 0 0 -7 0 0c0,-25 21,-46 47,-46z"/>
 </g>
</svg>
