<?xml version="1.0" encoding="UTF-8"?> <svg xmlns="http://www.w3.org/2000/svg" xmlns:xlink="http://www.w3.org/1999/xlink" xmlns:xodm="http://www.corel.com/coreldraw/odm/2003" xml:space="preserve" width="2.8786mm" height="2.8786mm" version="1.1" style="shape-rendering:geometricPrecision; text-rendering:geometricPrecision; image-rendering:optimizeQuality; fill-rule:evenodd; clip-rule:evenodd" viewBox="0 0 287.86 287.86"> <defs> <style type="text/css"> .fil2 {fill:#4D4D4D} .fil0 {fill:#E22427} .fil3 {fill:#EDEDED} .fil1 {fill:#FEFEFE} </style> </defs> <g id="Слой_x0020_1"> <metadata id="CorelCorpID_0Corel-Layer"></metadata> <g id="_2063784226928"> <path class="fil0" d="M36.54 8.47l214.78 0c15.44,0 28.07,12.64 28.07,28.08l0 214.76c0,15.44 -12.63,28.08 -28.07,28.08l-214.78 0c-15.44,0 -28.08,-12.64 -28.08,-28.08l0 -214.76c0,-15.44 12.64,-28.08 28.08,-28.08z"></path> <path class="fil1" d="M268.74 143.93c0,68.89 -15.12,124.76 -33.77,124.76l0 0 -182.09 0c-18.65,0 -33.78,-55.87 -33.78,-124.76 0,-68.91 15.13,-124.77 33.78,-124.77l182.09 0 0 0c18.65,0.01 33.77,55.86 33.77,124.77l0 0z"></path> <path class="fil2" d="M126.99 73.24l33.72 0 53.15 141.38 -35.24 0 -9.15 -26.49 -51.25 0 -8.95 26.49 -35.25 0 52.97 -141.38zm-1.53 90.88l36.77 0 -18.29 -53.91 -18.48 53.91z"></path> <path class="fil3" d="M52.88 268.69l0 -249.53c-18.66,0 -33.78,55.86 -33.78,124.77 0,68.89 15.12,124.76 33.78,124.76z"></path> <path class="fil3" d="M234.97 268.69l0 -249.53c18.65,0 33.77,55.86 33.77,124.77 0,68.89 -15.12,124.76 -33.77,124.76z"></path> </g> </g> </svg> 